<?xml version="1.0" encoding="UTF-8" standalone="no"?>
<!-- Created with Inkscape (http://www.inkscape.org/) -->

<svg
   width="210mm"
   height="297mm"
   viewBox="0 0 210 297"
   version="1.1"
   id="svg5"
   inkscape:version="1.1.2 (b8e25be833, 2022-02-05)"
   sodipodi:docname="logo.svg"
   xmlns:inkscape="http://www.inkscape.org/namespaces/inkscape"
   xmlns:sodipodi="http://sodipodi.sourceforge.net/DTD/sodipodi-0.dtd"
   xmlns="http://www.w3.org/2000/svg"
   xmlns:svg="http://www.w3.org/2000/svg">
  <sodipodi:namedview
     id="namedview7"
     pagecolor="#ffffff"
     bordercolor="#666666"
     borderopacity="1.0"
     inkscape:pageshadow="2"
     inkscape:pageopacity="0.0"
     inkscape:pagecheckerboard="0"
     inkscape:document-units="mm"
     showgrid="false"
     inkscape:zoom="0.73139029"
     inkscape:cx="397.18876"
     inkscape:cy="561.25984"
     inkscape:window-width="1920"
     inkscape:window-height="1002"
     inkscape:window-x="-8"
     inkscape:window-y="-8"
     inkscape:window-maximized="1"
     inkscape:current-layer="layer1" />
  <defs
     id="defs2" />
  <g
     inkscape:label="Layer 1"
     inkscape:groupmode="layer"
     id="layer1">
    <path
       style="fill:#000000;stroke-width:0.352778"
       d="m 90.334454,229.9986 c -27.70818,-5.05779 -51.0869,-22.51647 -63.74547,-47.60365 -6.32197,-12.52907 -9.32766,-25.36661 -9.32766,-39.83913 0,-39.8498 27.05253,-74.919965 65.73528,-85.217432 7.44949,-1.983079 11.67851,-2.540163 20.695276,-2.726172 11.6101,-0.239507 18.97239,0.777063 28.99232,4.003203 32.73743,10.540536 56.20351,38.70632 60.80227,72.979531 0.75014,5.59062 0.7476,16.56346 -0.005,22.225 -3.52336,26.49926 -18.36378,49.47025 -41.45888,64.17279 -3.79334,2.41487 -12.6078,6.65406 -16.93334,8.14385 -7.79734,2.68554 -16.51105,4.63141 -19.32125,4.31466 -1.89642,-0.21375 -3.67259,-1.77809 -4.26539,-3.75667 -0.28294,-0.94437 -0.40225,-8.02685 -0.40225,-23.87821 v -22.53561 l 18.60822,-18.61071 18.60823,-18.6107 -21.07767,-21.07766 -21.07767,-21.07767 -21.077666,21.07767 -21.07767,21.07767 18.78462,18.78708 18.784606,18.78707 v 22.46539 c 0,15.0151 -0.12443,22.79475 -0.37522,23.4585 -0.51061,1.35146 -2.032976,2.91861 -3.405806,3.506 -1.38081,0.59081 -3.99241,0.56812 -7.45973,-0.0648 z m 39.815756,-17.06687 c 10.55751,-3.39962 21.36506,-10.03864 29.29001,-17.99268 13.98614,-14.03748 21.51,-32.36898 21.51,-52.40799 0,-12.24392 -2.54939,-23.02781 -7.96464,-33.69028 -12.8095,-25.221591 -38.31263,-40.922219 -66.47148,-40.922219 -33.919756,0 -63.757986,23.109048 -72.134056,55.866229 -1.82508,7.13751 -2.43068,12.87601 -2.20173,20.86294 0.20856,7.27575 0.86161,11.6818 2.69992,18.21597 4.72953,16.81082 15.68632,31.70141 30.71365,41.7407 4.31603,2.88341 12.16802,6.68437 17.17068,8.31191 2.3753,0.77277 4.48422,1.40503 4.68652,1.40503 0.24871,0 0.36779,-4.31136 0.36779,-13.31632 V 187.6887 l -22.13615,-22.13825 -22.13616,-22.13824 31.0438,-31.01725 31.043796,-31.017231 31.14151,30.929441 31.14153,30.92945 -21.70471,21.69476 -21.70472,21.69475 v 4.97094 c 0,10.69859 0.45719,23.01449 0.84947,22.88339 0.21189,-0.0708 2.36962,-0.76774 4.79497,-1.54873 z"
       id="path39"
       inkscape:export-filename="D:\posao\interaktivni sadržaji\svjetska-kulturna-prirodna-bastina\leaflet-gsheets-master\img\kul-pri3.png"
       inkscape:export-xdpi="1.4439058"
       inkscape:export-ydpi="1.4439058" />
  </g>
</svg>
